<svg xmlns="http://www.w3.org/2000/svg" xmlns:xlink="http://www.w3.org/1999/xlink" version="1.1" width="256" height="256" viewBox="0 0 256 256" xml:space="preserve">

<defs>
</defs>
<g style="stroke: none; stroke-width: 0; stroke-dasharray: none; stroke-linecap: butt; stroke-linejoin: miter; stroke-miterlimit: 10; fill: none; fill-rule: nonzero; opacity: 1;" transform="translate(1.4065934065934016 1.4065934065934016) scale(2.81 2.81)" >
	<path d="M 42.45 60.78 H 18.216 c -1.642 0 -2.855 -1.53 -2.481 -3.129 l 2.989 -12.774 c 0.27 -1.153 1.298 -1.968 2.481 -1.968 h 17.509 c 1.132 0 2.128 0.747 2.446 1.833 l 3.736 12.774 C 45.373 59.148 44.15 60.78 42.45 60.78 z" style="stroke: none; stroke-width: 1; stroke-dasharray: none; stroke-linecap: butt; stroke-linejoin: miter; stroke-miterlimit: 10; fill: rgb(255,206,84); fill-rule: nonzero; opacity: 1;" transform=" matrix(1 0 0 1 0 0) " stroke-linecap="round" />
	<path d="M 44.896 57.517 L 41.16 44.743 c -0.318 -1.086 -1.314 -1.833 -2.446 -1.833 H 36.62 l 1.521 5.201 c 1.241 4.243 -1.941 8.488 -6.361 8.488 H 15.981 l -0.246 1.053 c -0.374 1.599 0.839 3.129 2.481 3.129 H 42.45 C 44.15 60.78 45.373 59.148 44.896 57.517 z" style="stroke: none; stroke-width: 1; stroke-dasharray: none; stroke-linecap: butt; stroke-linejoin: miter; stroke-miterlimit: 10; fill: rgb(246,187,66); fill-rule: nonzero; opacity: 1;" transform=" matrix(1 0 0 1 0 0) " stroke-linecap="round" />
	<path d="M 71.783 60.78 H 47.549 c -1.642 0 -2.855 -1.53 -2.481 -3.129 l 2.989 -12.774 c 0.27 -1.153 1.298 -1.968 2.481 -1.968 h 17.509 c 1.132 0 2.128 0.747 2.446 1.833 l 3.736 12.774 C 74.706 59.148 73.483 60.78 71.783 60.78 z" style="stroke: none; stroke-width: 1; stroke-dasharray: none; stroke-linecap: butt; stroke-linejoin: miter; stroke-miterlimit: 10; fill: rgb(255,206,84); fill-rule: nonzero; opacity: 1;" transform=" matrix(1 0 0 1 0 0) " stroke-linecap="round" />
	<path d="M 74.229 57.517 l -3.736 -12.774 c -0.318 -1.086 -1.314 -1.833 -2.446 -1.833 h -2.094 l 1.521 5.201 c 1.241 4.243 -1.941 8.488 -6.361 8.488 H 45.314 l -0.246 1.053 c -0.374 1.599 0.839 3.129 2.481 3.129 h 24.234 C 73.483 60.78 74.706 59.148 74.229 57.517 z" style="stroke: none; stroke-width: 1; stroke-dasharray: none; stroke-linecap: butt; stroke-linejoin: miter; stroke-miterlimit: 10; fill: rgb(246,187,66); fill-rule: nonzero; opacity: 1;" transform=" matrix(1 0 0 1 0 0) " stroke-linecap="round" />
	<path d="M 27.783 78.651 H 3.549 c -1.642 0 -2.855 -1.53 -2.481 -3.129 l 2.989 -12.774 c 0.27 -1.153 1.298 -1.968 2.481 -1.968 h 17.509 c 1.132 0 2.128 0.747 2.446 1.833 l 3.736 12.774 C 30.706 77.018 29.483 78.651 27.783 78.651 z" style="stroke: none; stroke-width: 1; stroke-dasharray: none; stroke-linecap: butt; stroke-linejoin: miter; stroke-miterlimit: 10; fill: rgb(255,206,84); fill-rule: nonzero; opacity: 1;" transform=" matrix(1 0 0 1 0 0) " stroke-linecap="round" />
	<path d="M 30.229 75.387 l -3.736 -12.774 c -0.318 -1.086 -1.314 -1.833 -2.446 -1.833 h -2.094 l 1.521 5.201 c 1.241 4.243 -1.941 8.488 -6.361 8.488 H 1.314 l -0.246 1.053 c -0.374 1.599 0.839 3.129 2.481 3.129 h 24.234 C 29.483 78.651 30.706 77.018 30.229 75.387 z" style="stroke: none; stroke-width: 1; stroke-dasharray: none; stroke-linecap: butt; stroke-linejoin: miter; stroke-miterlimit: 10; fill: rgb(246,187,66); fill-rule: nonzero; opacity: 1;" transform=" matrix(1 0 0 1 0 0) " stroke-linecap="round" />
	<path d="M 57.117 78.651 H 32.883 c -1.642 0 -2.855 -1.53 -2.481 -3.129 l 2.989 -12.774 c 0.27 -1.153 1.298 -1.968 2.481 -1.968 h 17.509 c 1.132 0 2.128 0.747 2.446 1.833 l 3.736 12.774 C 60.04 77.018 58.816 78.651 57.117 78.651 z" style="stroke: none; stroke-width: 1; stroke-dasharray: none; stroke-linecap: butt; stroke-linejoin: miter; stroke-miterlimit: 10; fill: rgb(255,206,84); fill-rule: nonzero; opacity: 1;" transform=" matrix(1 0 0 1 0 0) " stroke-linecap="round" />
	<path d="M 59.563 75.387 l -3.736 -12.774 c -0.318 -1.086 -1.314 -1.833 -2.446 -1.833 h -2.094 l 1.521 5.201 c 1.241 4.243 -1.941 8.488 -6.361 8.488 H 30.648 l -0.246 1.053 c -0.374 1.599 0.839 3.129 2.481 3.129 h 24.234 C 58.816 78.651 60.04 77.018 59.563 75.387 z" style="stroke: none; stroke-width: 1; stroke-dasharray: none; stroke-linecap: butt; stroke-linejoin: miter; stroke-miterlimit: 10; fill: rgb(246,187,66); fill-rule: nonzero; opacity: 1;" transform=" matrix(1 0 0 1 0 0) " stroke-linecap="round" />
	<path d="M 86.45 78.651 H 62.216 c -1.642 0 -2.855 -1.53 -2.481 -3.129 l 2.989 -12.774 c 0.27 -1.153 1.298 -1.968 2.481 -1.968 h 17.509 c 1.132 0 2.128 0.747 2.446 1.833 l 3.736 12.774 C 89.373 77.018 88.15 78.651 86.45 78.651 z" style="stroke: none; stroke-width: 1; stroke-dasharray: none; stroke-linecap: butt; stroke-linejoin: miter; stroke-miterlimit: 10; fill: rgb(255,206,84); fill-rule: nonzero; opacity: 1;" transform=" matrix(1 0 0 1 0 0) " stroke-linecap="round" />
	<path d="M 88.896 75.387 L 85.16 62.613 c -0.318 -1.086 -1.314 -1.833 -2.446 -1.833 H 80.62 l 1.521 5.201 c 1.241 4.243 -1.941 8.488 -6.361 8.488 H 59.981 l -0.246 1.053 c -0.374 1.599 0.839 3.129 2.481 3.129 H 86.45 C 88.15 78.651 89.373 77.018 88.896 75.387 z" style="stroke: none; stroke-width: 1; stroke-dasharray: none; stroke-linecap: butt; stroke-linejoin: miter; stroke-miterlimit: 10; fill: rgb(246,187,66); fill-rule: nonzero; opacity: 1;" transform=" matrix(1 0 0 1 0 0) " stroke-linecap="round" />
	<circle cx="44.996" cy="27.636000000000003" r="16.286" style="stroke: none; stroke-width: 1; stroke-dasharray: none; stroke-linecap: butt; stroke-linejoin: miter; stroke-miterlimit: 10; fill: rgb(255,206,84); fill-rule: nonzero; opacity: 1;" transform="  matrix(1 0 0 1 0 0) "/>
	<path d="M 45 11.349 c -1.399 0 -2.749 0.195 -4.045 0.527 c 7.034 1.801 12.241 8.163 12.241 15.759 s -5.207 13.958 -12.241 15.759 c 1.296 0.332 2.646 0.527 4.045 0.527 c 8.994 0 16.286 -7.291 16.286 -16.286 S 53.994 11.349 45 11.349 z" style="stroke: none; stroke-width: 1; stroke-dasharray: none; stroke-linecap: butt; stroke-linejoin: miter; stroke-miterlimit: 10; fill: rgb(246,187,66); fill-rule: nonzero; opacity: 1;" transform=" matrix(1 0 0 1 0 0) " stroke-linecap="round" />
	<path d="M 44.881 36.606 c -0.725 0 -1.447 -0.155 -2.126 -0.464 c -1.251 -0.568 -2.206 -1.59 -2.688 -2.876 c -0.291 -0.776 0.102 -1.641 0.877 -1.931 c 0.775 -0.293 1.641 0.102 1.931 0.877 c 0.201 0.536 0.599 0.962 1.121 1.199 c 0.52 0.237 1.104 0.257 1.64 0.056 c 0.537 -0.201 0.961 -0.599 1.199 -1.12 c 0.237 -0.521 0.257 -1.104 0.056 -1.64 c -0.237 -0.633 -0.749 -1.107 -1.403 -1.299 l -1.914 -0.698 c -1.474 -0.429 -2.701 -1.567 -3.273 -3.093 c -0.482 -1.287 -0.435 -2.684 0.133 -3.935 c 0.568 -1.251 1.59 -2.206 2.876 -2.688 c 2.657 -0.997 5.627 0.354 6.622 3.01 c 0.291 0.775 -0.102 1.64 -0.877 1.931 c -0.777 0.294 -1.641 -0.102 -1.932 -0.877 c -0.415 -1.107 -1.654 -1.67 -2.76 -1.255 c -0.536 0.201 -0.962 0.599 -1.199 1.12 c -0.237 0.521 -0.256 1.104 -0.056 1.64 c 0.238 0.634 0.749 1.107 1.403 1.299 l 1.914 0.698 c 1.475 0.43 2.702 1.568 3.273 3.093 c 0.482 1.286 0.436 2.684 -0.133 3.935 s -1.59 2.205 -2.877 2.688 C 46.102 36.496 45.491 36.606 44.881 36.606 z" style="stroke: none; stroke-width: 1; stroke-dasharray: none; stroke-linecap: butt; stroke-linejoin: miter; stroke-miterlimit: 10; fill: rgb(63,63,63); fill-rule: nonzero; opacity: 1;" transform=" matrix(1 0 0 1 0 0) " stroke-linecap="round" />
	<path d="M 45 21.672 c -0.829 0 -1.5 -0.671 -1.5 -1.5 v -2.037 c 0 -0.829 0.671 -1.5 1.5 -1.5 s 1.5 0.671 1.5 1.5 v 2.037 C 46.5 21 45.829 21.672 45 21.672 z" style="stroke: none; stroke-width: 1; stroke-dasharray: none; stroke-linecap: butt; stroke-linejoin: miter; stroke-miterlimit: 10; fill: rgb(63,63,63); fill-rule: nonzero; opacity: 1;" transform=" matrix(1 0 0 1 0 0) " stroke-linecap="round" />
	<path d="M 45 38.635 c -0.829 0 -1.5 -0.671 -1.5 -1.5 v -2.036 c 0 -0.829 0.671 -1.5 1.5 -1.5 s 1.5 0.671 1.5 1.5 v 2.036 C 46.5 37.964 45.829 38.635 45 38.635 z" style="stroke: none; stroke-width: 1; stroke-dasharray: none; stroke-linecap: butt; stroke-linejoin: miter; stroke-miterlimit: 10; fill: rgb(63,63,63); fill-rule: nonzero; opacity: 1;" transform=" matrix(1 0 0 1 0 0) " stroke-linecap="round" />
</g>
</svg>