<?xml version="1.0" encoding="iso-8859-1"?>
<!-- Uploaded to: SVG Repo, www.svgrepo.com, Generator: SVG Repo Mixer Tools -->
<svg version="1.1" id="Layer_1" xmlns="http://www.w3.org/2000/svg" xmlns:xlink="http://www.w3.org/1999/xlink" 
	 viewBox="0 0 512 512" xml:space="preserve">
<path style="fill:#F15A29;" d="M348.46,446.638H163.54c-39.182,0-70.945-31.763-70.945-70.945V168.987
	c0-39.182,31.763-70.945,70.945-70.945H348.46c39.182,0,70.945,31.763,70.945,70.945v206.706
	C419.404,414.876,387.642,446.638,348.46,446.638z"/>
<g>
	<rect x="187.915" y="10.894" style="fill:#EFEFEF;" width="136.17" height="87.149"/>
	<rect x="168.851" y="446.638" style="fill:#EFEFEF;" width="58.096" height="54.468"/>
	<rect x="226.947" y="446.638" style="fill:#EFEFEF;" width="58.096" height="54.468"/>
	<rect x="285.053" y="446.638" style="fill:#EFEFEF;" width="58.096" height="54.468"/>
</g>
<g>
	<path style="fill:#FFDE17;" d="M190.094,257.58c0,13.536-10.974,24.511-24.511,24.511c-13.536,0-24.511-10.974-24.511-24.511
		s24.511-40.197,24.511-40.197S190.094,244.043,190.094,257.58z"/>
	<path style="fill:#FFDE17;" d="M282.689,257.58c0,13.536-10.974,24.511-24.511,24.511c-13.536,0-24.511-10.974-24.511-24.511
		s24.511-40.197,24.511-40.197S282.689,244.043,282.689,257.58z"/>
	<path style="fill:#FFDE17;" d="M375.285,257.58c0,13.536-10.974,24.511-24.511,24.511c-13.536,0-24.511-10.974-24.511-24.511
		s24.511-40.197,24.511-40.197S375.285,244.043,375.285,257.58z"/>
</g>
<g>
	<path style="fill:#231F20;" d="M440.647,367.569h-10.349V177.112h10.349c6.015,0,10.894-4.877,10.894-10.894
		s-4.878-10.894-10.894-10.894h-11.511c-6.524-38.642-40.207-68.176-80.676-68.176h-13.481V21.787h19.064
		c6.015,0,10.894-4.877,10.894-10.894S360.058,0,354.043,0H157.957c-6.015,0-10.894,4.877-10.894,10.894s4.878,10.894,10.894,10.894
		h19.064v65.362H163.54c-40.469,0-74.152,29.534-80.676,68.176H71.353c-6.015,0-10.894,4.877-10.894,10.894
		s4.878,10.894,10.894,10.894h10.349v190.456H71.353c-6.015,0-10.894,4.877-10.894,10.894c0,6.017,4.878,10.894,10.894,10.894
		h11.511c6.221,36.849,37.143,65.392,75.093,67.964v32.893h-13.187c-6.015,0-10.894,4.877-10.894,10.894
		c0,6.017,4.878,10.894,10.894,10.894h222.46c6.015,0,10.894-4.877,10.894-10.894c0-6.017-4.878-10.894-10.894-10.894h-13.188
		v-32.892c37.95-2.572,68.872-31.115,75.093-67.964h11.511c6.015,0,10.894-4.877,10.894-10.894
		C451.54,372.446,446.662,367.569,440.647,367.569z M198.809,21.787h114.383v65.362h-46.298V63.455h8.17
		c6.015,0,10.894-4.877,10.894-10.894s-4.878-10.894-10.894-10.894h-38.128c-6.015,0-10.894,4.877-10.894,10.894
		s4.878,10.894,10.894,10.894h8.17v23.694h-46.298V21.787z M163.54,108.936H348.46c28.413,0,52.261,19.841,58.464,46.388H105.077
		C111.279,128.777,135.128,108.936,163.54,108.936z M103.489,177.112h305.021v190.456H103.489V177.112z M179.745,457.532h36.312
		v32.681h-36.312V457.532z M237.844,457.532h36.313v32.681h-36.313V457.532z M295.944,490.213v-32.681h36.312v32.681H295.944z
		 M348.46,435.745H163.54c-28.413,0-52.261-19.841-58.464-46.388h301.848C400.721,415.904,376.872,435.745,348.46,435.745z"/>
	<path style="fill:#231F20;" d="M375.285,314.771H198.809c-6.015,0-10.894,4.877-10.894,10.894c0,6.017,4.878,10.894,10.894,10.894
		h176.477c6.015,0,10.894-4.877,10.894-10.894C386.179,319.648,381.301,314.771,375.285,314.771z"/>
	<path style="fill:#231F20;" d="M142.434,314.771h-1.362c-6.015,0-10.894,4.877-10.894,10.894c0,6.017,4.878,10.894,10.894,10.894
		h1.362c6.015,0,10.894-4.877,10.894-10.894C153.328,319.648,148.449,314.771,142.434,314.771z"/>
	<path style="fill:#231F20;" d="M200.987,257.58c0-16.502-20.96-40.583-27.385-47.57c-2.063-2.244-4.971-3.521-8.019-3.521
		s-5.957,1.277-8.019,3.521c-6.424,6.988-27.385,31.07-27.385,47.57c0,19.521,15.882,35.404,35.404,35.404
		S200.987,277.102,200.987,257.58z M165.583,271.197c-7.509,0-13.617-6.108-13.617-13.617c0-3.654,5.874-13.46,13.621-23.355
		c7.743,9.883,13.613,19.687,13.613,23.355C179.2,265.089,173.092,271.197,165.583,271.197z"/>
	<path style="fill:#231F20;" d="M258.179,292.984c19.522,0,35.404-15.883,35.404-35.404c0-16.502-20.96-40.583-27.385-47.57
		c-2.063-2.244-4.971-3.521-8.019-3.521c-3.048,0-5.957,1.277-8.019,3.521c-6.424,6.988-27.385,31.07-27.385,47.57
		C222.774,277.102,238.656,292.984,258.179,292.984z M258.183,234.225c7.743,9.883,13.613,19.687,13.613,23.355
		c0,7.509-6.108,13.617-13.617,13.617s-13.617-6.108-13.617-13.617C244.562,253.926,250.436,244.119,258.183,234.225z"/>
	<path style="fill:#231F20;" d="M350.774,292.984c19.522,0,35.404-15.883,35.404-35.404c0-16.502-20.96-40.583-27.385-47.57
		c-2.063-2.244-4.971-3.521-8.019-3.521c-3.048,0-5.957,1.277-8.019,3.521c-6.424,6.988-27.385,31.07-27.385,47.57
		C315.37,277.102,331.252,292.984,350.774,292.984z M350.779,234.225c7.743,9.883,13.613,19.687,13.613,23.355
		c0,7.509-6.108,13.617-13.617,13.617c-7.509,0-13.617-6.108-13.617-13.617C337.157,253.926,343.031,244.119,350.779,234.225z"/>
</g>
</svg>